# xmcd
# 
# Track frame offsets:
#     182
#     15095
#     29232
#     44482
#     55572
#     69945
#     80867
#     100272
#     114220
#     124330
#     137770
#     151555
#     164672
#     179957
#     191052
#     204700
#     217602
#     231257
#     239010
#     256462
#     266762
#     278895
#     295425
#     306325
# 
# Disc length: 4260
# 
# Revision: 7
# Processed by: cddbd v1.5.2PL0 Copyright (c) Steve Scherf et al.
# Submitted via: BonkEnc v1.0.8
# 
DISCID=6d10a218
DTITLE=Milionário and José Rico - Vol 3
DYEAR=0
DGENRE=
TTITLE0=Livro Da Vida
TTITLE1=A Fossa
TTITLE2=Todos Tem O Mesmo Fim
TTITLE3=Meu Desespero
TTITLE4=Nossa Casa
TTITLE5=Quem Vai Te Deixar Sou Eu
TTITLE6=Sonho Alto
TTITLE7=O Nosso Filho
TTITLE8=O Preço De Um Pecado
TTITLE9=Cinzeiro Cheio
TTITLE10=Vá Pro Inferno Com Seu Amor
TTITLE11=Mundo Cruel
TTITLE12=Jogo Do Amor
TTITLE13=Lágrimas Que Choram
TTITLE14=Onde Está Meu Bem
TTITLE15=Recordando A Infância
TTITLE16=Vida Cor De Rosa
TTITLE17=Tortura Do Destino
TTITLE18=Mensagem Do Além
TTITLE19=Martírio De Dor
TTITLE20=Amor Com Amor Se Paga (Meu Erro)
TTITLE21=Jamais Quero Te Ver
TTITLE22=Tudo Passa
TTITLE23=Opinião
EXTD=
EXTT0=
EXTT1=
EXTT2=
EXTT3=
EXTT4=
EXTT5=
EXTT6=
EXTT7=
EXTT8=
EXTT9=
EXTT10=
EXTT11=
EXTT12=
EXTT13=
EXTT14=
EXTT15=
EXTT16=
EXTT17=
EXTT18=
EXTT19=
EXTT20=
EXTT21=
EXTT22=
EXTT23=
PLAYORDER=
